<svg width="15" height="15" viewBox="0 0 15 15" fill="none" xmlns="http://www.w3.org/2000/svg">
<g clip-path="url(#clip0_1611_883)">
<path d="M1.30713 7.61038C1.85546 4.62372 4.47288 2.36038 7.61821 2.36038C10.7635 2.36038 13.3804 4.62372 13.9293 7.61038C13.381 10.597 10.7635 12.8604 7.61821 12.8604C4.47288 12.8604 1.85605 10.597 1.30713 7.61038ZM7.61821 10.527C8.39176 10.527 9.13363 10.2198 9.68061 9.67278C10.2276 9.1258 10.5349 8.38393 10.5349 7.61038C10.5349 6.83683 10.2276 6.09497 9.68061 5.54799C9.13363 5.00101 8.39176 4.69372 7.61821 4.69372C6.84466 4.69372 6.1028 5.00101 5.55582 5.54799C5.00884 6.09497 4.70155 6.83683 4.70155 7.61038C4.70155 8.38393 5.00884 9.1258 5.55582 9.67278C6.1028 10.2198 6.84466 10.527 7.61821 10.527ZM7.61821 9.36038C7.15408 9.36038 6.70896 9.17601 6.38078 8.84782C6.05259 8.51963 5.86821 8.07451 5.86821 7.61038C5.86821 7.14625 6.05259 6.70113 6.38078 6.37294C6.70896 6.04476 7.15408 5.86038 7.61821 5.86038C8.08234 5.86038 8.52746 6.04476 8.85565 6.37294C9.18384 6.70113 9.36821 7.14625 9.36821 7.61038C9.36821 8.07451 9.18384 8.51963 8.85565 8.84782C8.52746 9.17601 8.08234 9.36038 7.61821 9.36038Z" fill="#00DF5E"/>
</g>
<defs>
<clipPath id="clip0_1611_883">
<rect width="14" height="14" fill="white" transform="translate(0.618164 0.610382)"/>
</clipPath>
</defs>
</svg>
